<svg xmlns="http://www.w3.org/2000/svg" viewBox="0 0 100 100">
  <defs>
    <linearGradient id="brainGrad" x1="0%" y1="0%" x2="100%" y2="100%">
      <stop offset="0%" style="stop-color:#3B82F6"/>
      <stop offset="100%" style="stop-color:#8B5CF6"/>
    </linearGradient>
  </defs>
  <rect width="100" height="100" rx="20" fill="url(#brainGrad)"/>
  <!-- Brain shape -->
  <g transform="translate(15, 12) scale(0.7)" fill="white">
    <!-- Left hemisphere -->
    <path d="M35 20 C20 20 10 35 10 50 C10 70 25 85 40 85 C45 85 48 82 50 80 C52 82 55 85 60 85 C75 85 90 70 90 50 C90 35 80 20 65 20 C60 20 55 25 50 30 C45 25 40 20 35 20" fill="white"/>
    <!-- Brain folds/sulci -->
    <path d="M30 35 Q40 40 35 55 Q30 65 40 70" stroke="url(#brainGrad)" stroke-width="3" fill="none"/>
    <path d="M50 25 Q50 45 50 75" stroke="url(#brainGrad)" stroke-width="2" fill="none"/>
    <path d="M70 35 Q60 40 65 55 Q70 65 60 70" stroke="url(#brainGrad)" stroke-width="3" fill="none"/>
    <path d="M25 50 Q35 50 45 50" stroke="url(#brainGrad)" stroke-width="2" fill="none"/>
    <path d="M55 50 Q65 50 75 50" stroke="url(#brainGrad)" stroke-width="2" fill="none"/>
  </g>
</svg>
